<svg width="37" height="10" viewBox="0 0 37 10" fill="none" xmlns="http://www.w3.org/2000/svg">
<path d="M35.4535 1.41819C33.657 -0.47277 30.7444 -0.47277 28.948 1.41819C27.1515 3.30915 27.1515 6.37502 28.948 8.26598C30.7444 10.1569 33.657 10.1569 35.4535 8.26598C37.2499 6.3751 37.2499 3.30923 35.4535 1.41819Z" fill="#C83636"/>
<path d="M21.6532 1.41819C19.8567 -0.47277 16.9441 -0.47277 15.1477 1.41819C13.3512 3.30915 13.3512 6.37502 15.1477 8.26598C16.9441 10.1569 19.8567 10.1569 21.6532 8.26598C23.4496 6.3751 23.4496 3.30923 21.6532 1.41819Z" fill="#C83636"/>
<path d="M7.85287 1.41819C6.05643 -0.47277 3.14381 -0.47277 1.34737 1.41819C-0.449071 3.30915 -0.449071 6.37502 1.34737 8.26598C3.14381 10.1569 6.05643 10.1569 7.85287 8.26598C9.64931 6.3751 9.64931 3.30923 7.85287 1.41819Z" fill="#C83636"/>
</svg>
