<svg width="39" height="41" viewBox="0 0 39 41" fill="none" xmlns="http://www.w3.org/2000/svg">
<ellipse opacity="0.05" cx="19.6344" cy="20.2" rx="19.3111" ry="20.0667" fill="#E71D36"/>
<path opacity="0.8" d="M24.2787 16.2931C22.1793 18.4747 22.1793 21.9254 24.2787 24.107C24.5234 24.3612 24.5234 24.7721 24.2787 25.0262C24.0341 25.2803 23.6387 25.2803 23.3942 25.0262C21.3415 22.8932 17.9273 22.8931 15.8747 25.0262C15.63 25.2803 15.2347 25.2803 14.9901 25.0262C14.7455 24.7721 14.7455 24.3612 14.9901 24.107C17.0895 21.9254 17.0895 18.4747 14.9901 16.2931C14.7455 16.0389 14.7455 15.628 14.9901 15.3739C15.112 15.2471 15.2723 15.1835 15.4324 15.1835C15.5926 15.1835 15.7527 15.2471 15.8747 15.3739C17.9273 17.507 21.3415 17.5069 23.3942 15.3739C23.5161 15.2471 23.6763 15.1835 23.8364 15.1835C23.9966 15.1835 24.1567 15.2471 24.2787 15.3739C24.5234 15.628 24.5234 16.0389 24.2787 16.2931Z" fill="#E71D36"/>
</svg>
