<svg width="130" height="134" viewBox="0 0 130 134" fill="none" xmlns="http://www.w3.org/2000/svg">
<ellipse cx="64.9388" cy="67.0397" rx="64.6922" ry="66.33" fill="#F7F7F8"/>
<g opacity="0.7">
<path fill-rule="evenodd" clip-rule="evenodd" d="M71.5469 59.3252C71.5991 59.4152 71.6903 59.4794 71.8076 59.4794C74.936 59.4794 77.4909 61.9992 77.4909 65.0845V72.7208C77.4909 75.8062 74.936 78.3259 71.8076 78.3259H57.1042C53.9627 78.3259 51.4209 75.8062 51.4209 72.7208V65.0845C51.4209 61.9992 53.9627 59.4794 57.1042 59.4794C57.2084 59.4794 57.3127 59.428 57.3518 59.3252L57.43 59.1709C57.475 59.0775 57.5211 58.9816 57.5679 58.8842C57.9014 58.1907 58.2703 57.4235 58.4989 56.9726C59.0985 55.8156 60.1152 55.1728 61.3796 55.1599H67.5191C68.7835 55.1728 69.8133 55.8156 70.4129 56.9726C70.6182 57.3775 70.9309 58.0298 71.2324 58.6584C71.2946 58.7882 71.3564 58.917 71.4166 59.0423L71.5469 59.3252ZM70.5952 64.2616C70.5952 64.9044 71.1166 65.4187 71.7684 65.4187C72.4201 65.4187 72.9546 64.9044 72.9546 64.2616C72.9546 63.6189 72.4201 63.0918 71.7684 63.0918C71.1166 63.0918 70.5952 63.6189 70.5952 64.2616ZM62.2004 66.2543C62.8131 65.6501 63.6082 65.3287 64.4555 65.3287C65.3028 65.3287 66.0979 65.6501 66.6975 66.2415C67.2971 66.8328 67.623 67.617 67.623 68.4527C67.6099 70.1753 66.2022 71.5766 64.4555 71.5766C63.6082 71.5766 62.8131 71.2552 62.2135 70.6638C61.6138 70.0725 61.288 69.2883 61.288 68.4527V68.4398C61.2749 67.6299 61.6008 66.8457 62.2004 66.2543ZM68.0662 72.0265C67.1407 72.9392 65.8633 73.5049 64.4555 73.5049C63.0868 73.5049 61.8094 72.9778 60.8318 72.0265C59.8672 71.0623 59.3328 69.8024 59.3328 68.4526C59.3197 67.1156 59.8542 65.8557 60.8187 64.8915C61.7964 63.9274 63.0868 63.4003 64.4555 63.4003C65.8242 63.4003 67.1146 63.9274 68.0792 64.8787C69.0438 65.8429 69.5783 67.1156 69.5783 68.4526C69.5652 69.8539 68.9917 71.1137 68.0662 72.0265Z" fill="#030229"/>
</g>
</svg>
